# xmcd CD database file
#
# Track frame offsets:
#	150
#	7212
#	28559
#	56507
#	86899
#	119508
#	159065
#	184486
#	206704
#
# Disc length: 3051 seconds
#
# Revision: 0
# Processed by: cddbd v1.5.2PL0 Copyright (c) Steve Scherf et al.
# Submitted via: CDex 1.51
#
DISCID=790be909
DTITLE=Heather Houston - Prayers For The Water
DYEAR=2015
DGENRE=New Age
TTITLE0=Calling The Whales
TTITLE1=Surrender
TTITLE2=Chant To Oshun
TTITLE3=Wade In The Water
TTITLE4=I Dreamed Of Rain
TTITLE5=Om Mani Padme Hum
TTITLE6=Tutane
TTITLE7=The Sea
TTITLE8=Chant To Yemaya
EXTD=YEAR: 2015
EXTT0=
EXTT1=
EXTT2=
EXTT3=
EXTT4=
EXTT5=
EXTT6=
EXTT7=
EXTT8=
PLAYORDER=
